<?xml version="1.0" encoding="UTF-8"?>
<svg version="1.1" xmlns="http://www.w3.org/2000/svg" width="1590" height="341">
<path d="M0 0 C524.7 0 1049.4 0 1590 0 C1590 112.53 1590 225.06 1590 341 C1065.3 341 540.6 341 0 341 C0 228.47 0 115.94 0 0 Z " fill="#FEFEFE" transform="translate(0,0)"/>
<path d="M0 0 C0.75627686 -0.0095874 1.51255371 -0.0191748 2.29174805 -0.02905273 C13.97853156 0.04089754 24.53663141 4.2443835 33.1171875 12.234375 C40.39972053 20.29829569 43.15423006 29.14600245 43.24047852 39.8684082 C43.24891785 40.58342499 43.25735718 41.29844177 43.26605225 42.03512573 C43.29161413 44.37368529 43.30392592 46.71211868 43.31640625 49.05078125 C43.33261233 50.6945237 43.34979549 52.33825678 43.36790466 53.98197937 C43.41341354 58.29637264 43.44829285 62.61077933 43.48010254 66.92529297 C43.53211009 73.81836747 43.59779202 80.71130112 43.66831779 87.60420799 C43.6908716 89.99412714 43.70732475 92.38402949 43.72303772 94.77400208 C43.77360064 100.89544327 43.83519618 106.97789119 44.45288086 113.07495117 C44.98687894 118.7772974 44.9375 124.52270514 44.9375 130.25 C29.7575 130.25 14.5775 130.25 -1.0625 130.25 C-1.10117187 121.23751953 -1.10117187 121.23751953 -1.140625 112.04296875 C-1.16581397 108.21935935 -1.19216266 104.39582744 -1.22265625 100.57226562 C-1.27086715 94.51342553 -1.31495837 88.45476499 -1.33349609 82.39575195 C-1.34872446 77.50664696 -1.38327889 72.61801413 -1.43080902 67.72912025 C-1.44555935 65.87101679 -1.45353734 64.01284589 -1.45438385 62.15468407 C-1.0140327 46.37323053 -1.0140327 46.37323053 -7.56793213 32.545578 C-11.68156232 28.97964507 -16.33410948 28.81301451 -21.5625 28.9375 C-25.6563532 29.44923165 -27.75937546 30.73962535 -31.0625 33.25 C-35.56666241 39.05799889 -36.21713892 43.51742754 -36.26782227 50.66870117 C-36.27772186 51.52745346 -36.28762146 52.38620575 -36.29782104 53.27098083 C-36.32942766 56.11161535 -36.35419021 58.9522666 -36.37890625 61.79296875 C-36.3994765 63.76166724 -36.42047299 65.73036132 -36.44187927 67.6990509 C-36.49709262 72.88248118 -36.54650518 78.06595127 -36.59472656 83.24945068 C-36.65377551 89.46780506 -36.71999946 95.68608662 -36.78502655 101.9043808 C-36.8830268 111.35287609 -36.97188924 120.80141793 -37.0625 130.25 C-51.9125 130.25 -66.7625 130.25 -82.0625 130.25 C-82.09988281 124.14628906 -82.13726563 118.04257813 -82.17578125 111.75390625 C-82.20607497 107.87562338 -82.23723203 103.99738563 -82.27148438 100.11914062 C-82.32570992 93.9701572 -82.37682386 87.821263 -82.40893555 81.67211914 C-82.43503985 76.71176576 -82.47549249 71.75171382 -82.52568626 66.79154778 C-82.54230687 64.90387676 -82.55385096 63.01615367 -82.56011391 61.12841988 C-82.56980751 58.47404882 -82.59792865 55.82044065 -82.63012695 53.16625977 C-82.62869186 52.39445374 -82.62725677 51.62264771 -82.6257782 50.82745361 C-82.72626556 44.92884542 -83.45214784 38.18664511 -87.51418018 33.61686039 C-92.02949055 29.78539592 -94.94599412 28.95750475 -100.6796875 29.03125 C-105.25320231 29.45111365 -108.62930848 31.17510636 -112.3125 33.9375 C-116.74057285 39.78888198 -117.50798719 45.96695451 -117.49487305 53.05273438 C-117.5050647 53.89270966 -117.51525635 54.73268494 -117.52575684 55.59811401 C-117.55570854 58.34672876 -117.56512529 61.094994 -117.57421875 63.84375 C-117.59107868 65.76046897 -117.60923068 67.67717698 -117.62861633 69.59387207 C-117.67597976 74.61776298 -117.70587734 79.6416094 -117.73205566 84.66564941 C-117.76719066 90.7048047 -117.82416439 96.74378922 -117.87744904 102.7828064 C-117.9558027 111.9385155 -118.00652953 121.09400352 -118.0625 130.25 C-132.9125 130.25 -147.7625 130.25 -163.0625 130.25 C-163.0625 88.34 -163.0625 46.43 -163.0625 3.25 C-148.5425 3.25 -134.0225 3.25 -119.0625 3.25 C-118.4025 8.53 -117.7425 13.81 -117.0625 19.25 C-115.8559375 17.455625 -115.8559375 17.455625 -114.625 15.625 C-108.68576074 7.77077239 -100.41169701 3.82549896 -91.0625 1.25 C-87.0639138 0.70713351 -83.15622664 0.62771349 -79.125 0.6875 C-78.07103027 0.69918213 -77.01706055 0.71086426 -75.93115234 0.72290039 C-63.55254879 1.07457615 -55.99250958 4.6594084 -47.0234375 13.1640625 C-44.42930906 15.9235537 -43.0625 17.37953 -43.0625 21.25 C-42.381875 20.569375 -41.70125 19.88875 -41 19.1875 C-40.53464844 18.72988281 -40.06929687 18.27226563 -39.58984375 17.80078125 C-38.57090647 16.76620811 -37.58308995 15.70005005 -36.62890625 14.60546875 C-26.68707982 3.62235376 -14.19220566 0.15952758 0 0 Z " fill="#E71417" transform="translate(697.0625,51.75)"/>
<path d="M0 0 C1.07644775 -0.01393799 2.15289551 -0.02787598 3.26196289 -0.04223633 C20.87273219 0.06150701 37.49741271 6.46933666 50.375 18.5 C63.89701859 32.54209623 67.17509463 50.23677071 67.0456543 69.0769043 C66.62248286 87.20844983 62.20048447 103.97213462 49.15234375 117.265625 C33.31761594 131.16928844 12.76426005 135.47343167 -7.75292969 134.5390625 C-23.55772952 133.50065563 -38.29271725 129.23221274 -50.25 118.375 C-50.87390625 117.83101563 -51.4978125 117.28703125 -52.140625 116.7265625 C-64.03560182 105.71077962 -69.67002577 88.99398682 -70.50390625 73.1328125 C-71.16718097 53.91191494 -67.70556756 34.96140989 -54.9375 19.9375 C-39.65259142 4.16119842 -21.19415708 0.17620382 0 0 Z " fill="#E71418" transform="translate(821.25,51.625)"/>
<path d="M0 0 C15.18 0 30.36 0 46 0 C46.33 21.78 46.66 43.56 47 66 C49.97 63.36 52.94 60.72 56 58 C59.14453125 56.16015625 59.14453125 56.16015625 61.8125 55.0625 C63.15248047 54.49208984 63.15248047 54.49208984 64.51953125 53.91015625 C75.55934546 49.85932679 91.59593856 50.16543722 102.3984375 54.6171875 C113.60686401 60.57481961 121.7098858 68.3708303 125.4921875 80.69921875 C126.85828105 86.88867338 127.16186671 92.93471498 127.20532227 99.23999023 C127.21522186 100.13834091 127.22512146 101.03669159 127.23532104 101.96226501 C127.2667326 104.91101509 127.29161246 107.85978124 127.31640625 110.80859375 C127.33699337 112.86125592 127.35799029 114.91391402 127.37937927 116.96656799 C127.43441838 122.3537973 127.48390735 127.74106372 127.53222656 133.12835693 C127.59143592 139.60044132 127.65756344 146.0724583 127.72252655 152.544487 C127.82030738 162.36294996 127.90931981 172.18145733 128 182 C112.49 182 96.98 182 81 182 C80.98582031 175.76351562 80.97164063 169.52703125 80.95703125 163.1015625 C80.93696025 159.13666285 80.91542966 155.17187766 80.88867188 151.20703125 C80.84639374 144.92199258 80.80934888 138.63724423 80.80444336 132.35205078 C80.8001463 127.2813452 80.77156692 122.21129098 80.72656822 117.14078903 C80.71363815 115.21207863 80.70926952 113.28329009 80.71384621 111.35454178 C81.10509877 96.81015815 81.10509877 96.81015815 75 84 C69.97257397 80.71283683 64.85853085 80.22885883 59 81 C53.72677847 82.82534591 51.20308914 85.60719203 48 90 C46.71742048 93.84773857 46.82278585 97.49885763 46.79467773 101.51049805 C46.78477814 102.37900391 46.77487854 103.24750977 46.76467896 104.14233398 C46.73307056 107.01543443 46.70830908 109.88855142 46.68359375 112.76171875 C46.66302366 114.75283744 46.64202717 116.74395177 46.62062073 118.73506165 C46.56540579 123.97767608 46.51599392 129.22032988 46.46777344 134.4630127 C46.40872595 140.75228435 46.34250113 147.04148399 46.27747345 153.33069611 C46.17947119 162.88708679 46.09061013 172.44352349 46 182 C30.82 182 15.64 182 0 182 C0 121.94 0 61.88 0 0 Z " fill="#E8161A" transform="translate(163,0)"/>
<path d="M0 0 C14.85 0 29.7 0 45 0 C45.33 21.78 45.66 43.56 46 66 C49.3 63.36 52.6 60.72 56 58 C59.27734375 56.16015625 59.27734375 56.16015625 61.9375 55.0625 C62.83339844 54.68222656 63.72929688 54.30195312 64.65234375 53.91015625 C75.5077849 49.7016408 90.41510266 50.7032243 101.203125 54.671875 C111.78435336 59.69648065 119.64623958 67.07571766 124 78 C125.83697182 84.24149692 126.30250599 90.26713392 126.31884766 96.74243164 C126.32889328 97.67033508 126.3389389 98.59823853 126.34928894 99.55426025 C126.37992309 102.58955321 126.3971007 105.62475879 126.4140625 108.66015625 C126.43279007 110.77722414 126.45236465 112.89428469 126.4727478 115.01133728 C126.52390707 120.55963804 126.56361927 126.10796296 126.60089111 131.65637207 C126.64810128 138.32627159 126.70962927 144.99605276 126.76873779 151.66585541 C126.8567523 161.77718874 126.92665834 171.88850166 127 182 C111.82 182 96.64 182 81 182 C80.97421875 175.99167969 80.9484375 169.98335937 80.921875 163.79296875 C80.89668603 159.96935935 80.87033734 156.14582744 80.83984375 152.32226562 C80.79163285 146.26342553 80.74754163 140.20476499 80.72900391 134.14575195 C80.71377554 129.25664696 80.67922111 124.36801413 80.63169098 119.47912025 C80.61694065 117.62101679 80.60896266 115.76284589 80.60811615 113.90468407 C80.98973667 97.40471778 80.98973667 97.40471778 73.4375 83.375 C68.41759655 80.54325959 63.6370879 80.37555779 58 81 C53.6971714 82.54071599 50.25154111 84.97092644 48 89 C45.96282322 94.00670086 45.69564736 98.35348609 45.68115234 103.66748047 C45.66608391 104.94163567 45.66608391 104.94163567 45.65071106 106.24153137 C45.61995971 109.03341022 45.60286637 111.82519352 45.5859375 114.6171875 C45.56721938 116.5591819 45.54764548 118.50116822 45.5272522 120.44314575 C45.47599312 125.5426761 45.43633406 130.6422328 45.39910889 135.74188232 C45.35197776 141.86690016 45.2904066 147.99178787 45.23126221 154.11669922 C45.14312584 163.41108011 45.07330706 172.70543702 45 182 C30.15 182 15.3 182 0 182 C0 121.94 0 61.88 0 0 Z " fill="#E71317" transform="translate(1229,0)"/>
<path d="M0 0 C0.90363281 0.2784375 1.80726563 0.556875 2.73828125 0.84375 C14.96481554 5.14808377 24.67278605 14.72053552 30.3125 26.25 C33.07827097 32.68342379 34.78455694 39.11551279 36 46 C36.13148438 46.72058594 36.26296875 47.44117188 36.3984375 48.18359375 C37.57569498 56.34485167 37 64.88499552 37 73 C8.95 73 -19.1 73 -48 73 C-46.36760458 89.64465854 -46.36760458 89.64465854 -37 102 C-31.8787832 104.5606084 -23.84426533 103.75875981 -18.4375 102.31640625 C-13.82802559 100.21246054 -11.29656675 97.5931335 -9 93 C-8.34 90.36 -7.68 87.72 -7 85 C7.19 85 21.38 85 36 85 C34.43996622 99.04030406 29.53174561 109.1199345 18.54296875 118.23828125 C-0.07731895 131.13805046 -21.60822211 133.56947709 -43.70141602 130.17529297 C-58.99159872 127.38227373 -71.78747235 120.73631948 -81 108 C-92.52807014 88.92229697 -94.62022704 61.08571208 -89.4375 39.6875 C-83.5768101 21.61189853 -73.23158498 9.9766539 -56.5625 1.1875 C-55.386875 0.795625 -54.21125 0.40375 -53 0 C-52.20851563 -0.27585938 -51.41703125 -0.55171875 -50.6015625 -0.8359375 C-35.02918548 -5.3865785 -15.42060161 -4.93459252 0 0 Z " fill="#E81519" transform="translate(391,55)"/>
<path d="M0 0 C14.01524936 11.23380295 18.31164238 29.4683477 20.58984375 46.375 C20.58984375 52.315 20.58984375 58.255 20.58984375 64.375 C-7.46015625 64.375 -35.51015625 64.375 -64.41015625 64.375 C-63.56310656 79.99622864 -63.56310656 79.99622864 -55.78515625 91.8125 C-50.0896205 95.55956299 -44.06127178 94.87146087 -37.41015625 94.375 C-33.10720623 93.3907085 -30.49459917 91.83545579 -27.85546875 88.28125 C-25.45273951 84.20882757 -24.35376007 81.09301911 -23.41015625 76.375 C-9.22015625 76.375 4.96984375 76.375 19.58984375 76.375 C17.97344373 89.30620014 13.34269583 99.95332125 3.1328125 108.41015625 C0.67634482 110.18741628 -1.81497645 111.80865362 -4.41015625 113.375 C-5.02117187 113.76300781 -5.6321875 114.15101563 -6.26171875 114.55078125 C-12.98347274 118.38543826 -20.9320186 119.69655604 -28.41015625 121.375 C-29.22742187 121.57222656 -30.0446875 121.76945313 -30.88671875 121.97265625 C-49.85444797 124.99692267 -71.28851575 121.39662424 -87.22265625 110.6875 C-100.00406221 100.8669665 -105.30358625 85.87300943 -107.41015625 70.375 C-107.76632079 65.707868 -107.8861824 61.07257914 -107.85620117 56.39550781 C-107.84765466 54.37462304 -107.87667689 52.35654906 -107.90820312 50.3359375 C-108.00203188 32.84766035 -103.00280982 17.49347146 -90.8203125 4.66015625 C-67.26961288 -17.66911325 -26.17179285 -17.64581171 0 0 Z " fill="#E81519" transform="translate(1473.41015625,63.625)"/>
<path d="M0 0 C39.93 0 79.86 0 121 0 C119.02 6.6 117.04 13.2 115 20 C113.68 24.62 112.36 29.24 111 34 C90.21 34 69.42 34 48 34 C48 48.19 48 62.38 48 77 C63.84 77 79.68 77 96 77 C93.74888855 88.25555726 93.74888855 88.25555726 92.30859375 92.71875 C92.00373047 93.67007813 91.69886719 94.62140625 91.38476562 95.6015625 C91.07216797 96.55804688 90.75957031 97.51453125 90.4375 98.5 C89.96280273 99.98113281 89.96280273 99.98113281 89.47851562 101.4921875 C87.15917592 108.68164817 87.15917592 108.68164817 86 111 C73.46 111 60.92 111 48 111 C48 134.43 48 157.86 48 182 C32.16 182 16.32 182 0 182 C0 121.94 0 61.88 0 0 Z " fill="#E81418" transform="translate(922,0)"/>
<path d="M0 0 C50.49 0 100.98 0 153 0 C153 11.22 153 22.44 153 34 C135.51 34 118.02 34 100 34 C100 82.84 100 131.68 100 182 C84.16 182 68.32 182 52 182 C52 133.16 52 84.32 52 34 C34.84 34 17.68 34 0 34 C0 22.78 0 11.56 0 0 Z " fill="#E81317" transform="translate(0,0)"/>
<path d="M0 0 C0.90492187 0.2784375 1.80984375 0.556875 2.7421875 0.84375 C13.68754702 4.70290412 20.80731606 11.72972541 25.99609375 21.96484375 C28.48191422 27.78095002 28.39080114 32.29881255 29 39 C14.81 39 0.62 39 -14 39 C-14.66 35.7 -15.32 32.4 -16 29 C-19.8443658 24.95848724 -23.40704447 23.84538929 -28.875 23.6875 C-32.25379225 23.74669052 -33.94774149 23.9754705 -37.0625 25.4375 C-39.38750625 28.51250826 -40.25633139 30.79066957 -40.39282227 34.640625 C-39.89742527 37.61608586 -39.12040898 38.28105036 -36.73046875 40.06640625 C-31.56149628 43.65487804 -26.04420296 45.05935692 -20 46.5625 C-17.76915675 47.15484138 -15.53868718 47.74859188 -13.30859375 48.34375 C-11.68993408 48.76720703 -11.68993408 48.76720703 -10.03857422 49.19921875 C4.56524225 53.04788644 18.03087839 56.93897498 27 70 C32.2388578 79.58977361 32.32366922 90.32867669 29.875 100.8125 C26.39101247 111.88311459 19.30847065 118.88536043 9.25 124.1875 C-11.41271798 134.04163017 -37.69254311 133.53784283 -59.29296875 127.00390625 C-68.57581669 123.60372494 -76.21335906 117.90283425 -81 109.125 C-84.34232181 101.5309614 -85 94.23632911 -85 86 C-70.81 86 -56.62 86 -42 86 C-41.34 88.97 -40.68 91.94 -40 95 C-37.80705763 99.02039435 -36.24896866 101.31572414 -32 103 C-25.72701126 103.80907895 -20.46701728 103.18909342 -15 100 C-12.55358153 97.12811745 -12.50017551 93.66512978 -12.64453125 89.953125 C-13.31223655 86.28441457 -15.00512543 85.13096844 -18 83 C-25.42564588 79.04934499 -33.53998822 76.88536529 -41.5625 74.5 C-55.88284846 70.23837207 -71.41834891 65.20596048 -80 52 C-84.40467591 42.92199238 -84.76556992 32.085866 -81.96875 22.4453125 C-77.10620911 11.82876488 -69.1345423 5.72698737 -58.54296875 1.25390625 C-40.62417556 -5.08780556 -18.15059892 -5.73697405 0 0 Z " fill="#E71418" transform="translate(1187,55)"/>
<path d="M0 0 C0 12.87 0 25.74 0 39 C-3.0525 39.04125 -6.105 39.0825 -9.25 39.125 C-18.59362692 39.47728951 -27.01874003 40.74261697 -33.76171875 47.859375 C-39.93517601 56.70386965 -39.32899925 67.79440459 -39.4140625 78.09765625 C-39.4328063 79.54212002 -39.45238201 80.98657321 -39.4727478 82.43101501 C-39.52373635 86.20378334 -39.5635384 89.97658704 -39.60089111 93.74951172 C-39.64823773 98.29191015 -39.70969079 102.83413767 -39.76873779 107.37639618 C-39.85654362 114.25086052 -39.92659774 121.12529889 -40 128 C-54.85 128 -69.7 128 -85 128 C-85.33 86.09 -85.66 44.18 -86 1 C-71.15 1 -56.3 1 -41 1 C-40.34 7.6 -39.68 14.2 -39 21 C-38.34 19.659375 -37.68 18.31875 -37 16.9375 C-32.78722127 9.35927197 -26.33574142 3.97056525 -18.015625 1.3828125 C-11.69076276 -0.25447453 -6.85632249 0 0 0 Z " fill="#E71418" transform="translate(524,54)"/>
<path d="M0 0 C0 12.54 0 25.08 0 38 C-4.95 38.33 -9.9 38.66 -15 39 C-23.0909325 40.53301879 -28.70344064 42.50421965 -34 49 C-37.92212202 55.65848622 -39.1041867 62.04616221 -39.20532227 69.71801758 C-39.21522186 70.37223694 -39.22512146 71.0264563 -39.23532104 71.70050049 C-39.26673914 73.84847478 -39.29161492 75.99647113 -39.31640625 78.14453125 C-39.33699282 79.63954725 -39.35798973 81.13455765 -39.37937927 82.62956238 C-39.43442415 86.55365448 -39.48391053 90.47779758 -39.53222656 94.40197754 C-39.59143064 99.11610204 -39.65756134 103.83013388 -39.72252655 108.54418182 C-39.82031467 115.69606435 -39.90932192 122.84800787 -40 130 C-54.85 130 -69.7 130 -85 130 C-85.33 88.09 -85.66 46.18 -86 3 C-71.15 3 -56.3 3 -41 3 C-41 9.6 -41 16.2 -41 23 C-40.34 23 -39.68 23 -39 23 C-38.95875 22.175 -38.9175 21.35 -38.875 20.5 C-37.08699139 13.34796557 -32.64568574 9.14715256 -26.625 5.125 C-17.23822264 -0.41370331 -11.6687792 0 0 0 Z " fill="#E81418" transform="translate(1590,52)"/>
<path d="M0 0 C14.85 0 29.7 0 45 0 C45 41.91 45 83.82 45 127 C30.15 127 15.3 127 0 127 C0 85.09 0 43.18 0 0 Z " fill="#E81317" transform="translate(1046,55)"/>
<path d="M0 0 C6.6 0 13.2 0 20 0 C25.98191954 6.46881997 25.98191954 6.46881997 27.6015625 9.6953125 C30.20858152 14.54011608 33.43687206 18.80726445 36.75 23.1875 C37.95365427 24.8137503 39.15545984 26.44137043 40.35546875 28.0703125 C41.57022993 29.7136027 42.78507337 31.35683211 44 33 C70.86720983 69.34759129 70.86720983 69.34759129 78 81 C77.92894547 80.02808716 77.85789093 79.05617432 77.78468323 78.05480957 C77.11311403 68.43338983 76.86438248 58.86602474 76.90234375 49.21875 C76.90421649 47.78430227 76.90563632 46.34985388 76.90663147 44.91540527 C76.91038944 41.20019663 76.92015936 37.48502917 76.93133545 33.76983643 C76.94169699 29.9546362 76.94616016 26.13942909 76.95117188 22.32421875 C76.96179011 14.88279185 76.97932942 7.44140701 77 0 C82.61 0 88.22 0 94 0 C94 33.99 94 67.98 94 103 C75 103 75 103 70.79296875 99.94921875 C69.4206543 97.92285156 69.4206543 97.92285156 68.1875 95.6875 C67.15707254 94.11274272 66.12579169 92.53854359 65.09375 90.96484375 C64.5884375 90.1435498 64.083125 89.32225586 63.5625 88.47607422 C60.99267649 84.40370702 58.07619031 80.59916063 55.1875 76.75 C54.02117747 75.16085887 52.85582914 73.57100234 51.69140625 71.98046875 C47.74017071 66.61983444 43.68144829 61.34366098 39.625 56.0625 C34.10857998 48.86425255 28.91075499 41.62920864 24 34 C21.36 30.04 18.72 26.08 16 22 C16 48.73 16 75.46 16 103 C10.72 103 5.44 103 0 103 C0 69.01 0 35.02 0 0 Z " fill="#050505" transform="translate(702,235)"/>
<path d="M0 0 C25.08 0 50.16 0 76 0 C75 11 75 11 74 13 C55.19 13 36.38 13 17 13 C17 22.9 17 32.8 17 43 C33.17 43 49.34 43 66 43 C66 47.29 66 51.58 66 56 C49.83 56 33.66 56 17 56 C17 67.22 17 78.44 17 90 C37.13 90 57.26 90 78 90 C78 94.62 78 99.24 78 104 C52.26 104 26.52 104 0 104 C0 69.68 0 35.36 0 0 Z " fill="#090909" transform="translate(534,235)"/>
<path d="M0 0 C-0.73579212 1.46555316 -1.48925126 2.92224487 -2.25 4.375 C-2.66765625 5.18710938 -3.0853125 5.99921875 -3.515625 6.8359375 C-5.22644155 9.33012795 -6.06520859 10.2456346 -9 11 C-11.953125 10.171875 -11.953125 10.171875 -15.25 8.75 C-16.41144531 8.27691406 -17.57289062 7.80382812 -18.76953125 7.31640625 C-20.36861328 6.66478516 -20.36861328 6.66478516 -22 6 C-32.0960978 2.29009935 -45.18976441 2.4703743 -55.03125 6.91796875 C-58.22938566 8.62844705 -59.96682051 9.95023077 -62 13 C-62.31600189 15.14790929 -62.31600189 15.14790929 -62.25 17.4375 C-62.25515625 18.19933594 -62.2603125 18.96117187 -62.265625 19.74609375 C-61.96134604 22.32799024 -61.36615405 23.78853981 -60 26 C-52.74139339 31.2543859 -43.49040036 32.96398368 -34.9375 35.0625 C-20.19471557 38.70977048 -6.53790067 42.32011295 2.14453125 55.7734375 C4.44613235 61.76390613 3.94322951 69.97542934 2.0546875 76.03125 C-2.33765993 85.20269243 -9.8127462 91.70788722 -19.33203125 95.234375 C-22.54067788 96.22829921 -25.75008044 97.15162743 -29 98 C-29.62592041 98.1757959 -30.25184082 98.3515918 -30.89672852 98.53271484 C-48.68742425 102.48528497 -68.90069941 97.70241048 -85 90 C-84.45897018 86.39935329 -83.64824474 84.0784739 -81.4375 81.1875 C-80.98246094 80.58292969 -80.52742188 79.97835937 -80.05859375 79.35546875 C-79.70925781 78.90816406 -79.35992187 78.46085937 -79 78 C-77.845 78.4125 -76.69 78.825 -75.5 79.25 C-73.67059952 79.84555249 -71.83657925 80.42696809 -70 81 C-68.84757812 81.35964844 -67.69515625 81.71929687 -66.5078125 82.08984375 C-51.65282254 86.41729971 -35.57592052 87.57639445 -21.5625 80.1875 C-18.09264317 77.2254271 -16.46210542 74.56725231 -15.6484375 70.046875 C-15.37072955 66.21742857 -15.87090641 64.23513475 -17.75 60.8125 C-24.85506511 53.64951317 -35.96675627 52.24890442 -45.375 50.125 C-57.76770287 47.29347616 -69.44294874 44.33118224 -77.765625 33.9921875 C-81.8882968 27.33850832 -81.66656955 20.62659445 -81 13 C-79.28027714 5.8787315 -73.79688998 1.11052199 -68 -3 C-47.7727766 -14.04297061 -19.51210794 -11.81328139 0 0 Z " fill="#040404" transform="translate(132,242)"/>
<path d="M0 0 C-0.90626784 1.2989839 -1.82549537 2.58893167 -2.75 3.875 C-3.26046875 4.59429687 -3.7709375 5.31359375 -4.296875 6.0546875 C-6.18035945 8.20600689 -7.23415139 9.24386873 -10 10 C-12.75 9.1015625 -12.75 9.1015625 -16 7.625 C-26.98661385 3.20664767 -39.92697276 3.14312713 -51.125 6.9375 C-62.19660035 12.02560388 -68.59618877 19.77109387 -73 31 C-75.91635345 40.9527988 -75.58677385 55.30177692 -71.3203125 64.71484375 C-66.2795808 73.43918708 -60.23481914 79.38137596 -50.875 83.3125 C-36.43185071 86.76629657 -22.69607672 85.83957707 -9.296875 79.609375 C-7 79 -7 79 -4.90625 79.6328125 C-2.67972197 81.2297076 -1.33370433 82.89341662 0.25 85.125 C0.77078125 85.84945312 1.2915625 86.57390625 1.828125 87.3203125 C2.21484375 87.87460937 2.6015625 88.42890625 3 89 C-15.10404655 98.56226258 -35.70787137 101.25604983 -55.765625 96.09765625 C-69.73728319 91.35606694 -82.03679798 83.38069855 -89 70 C-94.97990808 56.21352381 -96.27832375 41.25567938 -91.26953125 26.97265625 C-89.28479197 22.32531288 -86.87835676 18.14665644 -84 14 C-83.29875 12.989375 -82.5975 11.97875 -81.875 10.9375 C-62.27908067 -10.95287823 -24.57187712 -16.65427227 0 0 Z " fill="#040404" transform="translate(318,242)"/>
<path d="M0 0 C1.24221313 0.00628418 1.24221313 0.00628418 2.50952148 0.01269531 C9.23320594 0.13583732 15.31277846 1.1033454 21.6875 3.3125 C23.11255859 3.79976562 23.11255859 3.79976562 24.56640625 4.296875 C31.3495516 6.80557741 31.3495516 6.80557741 33.6875 10.3125 C30.2225 14.7675 30.2225 14.7675 26.6875 19.3125 C22.82443419 18.53988684 20.40387842 17.78999933 16.9375 16.25 C6.35016965 12.31019506 -8.37715637 12.75974811 -18.703125 17.3828125 C-28.94416887 22.77462037 -35.22669289 29.9781316 -39.1875 40.875 C-42.17429407 52.12881338 -41.54232248 65.36675871 -36.05859375 75.66796875 C-31.25481343 83.48229259 -24.39913283 90.33933462 -15.37207031 92.8527832 C-9.86880232 94.14807062 -4.64914714 94.69796031 1 94.6875 C2.23568726 94.6872583 2.23568726 94.6872583 3.49633789 94.68701172 C11.14333554 94.54488812 18.07771123 92.97903188 24.75390625 89.1171875 C26.6875 88.3125 26.6875 88.3125 28.734375 88.43359375 C31.31622432 89.59542594 32.32571182 91.06721238 33.9375 93.375 C34.71867187 94.47521484 34.71867187 94.47521484 35.515625 95.59765625 C35.90234375 96.16355469 36.2890625 96.72945313 36.6875 97.3125 C34.12074512 100.38008509 31.32369381 101.46870283 27.625 102.875 C26.56152344 103.28878906 25.49804688 103.70257813 24.40234375 104.12890625 C16.05748661 106.78767777 8.11410671 107.67623 -0.625 107.625 C-1.6353833 107.61936035 -2.6457666 107.6137207 -3.68676758 107.60791016 C-20.45652596 107.33584436 -35.11864079 102.16822793 -47.3125 90.3125 C-58.14719498 77.81412825 -60.10985541 63.5914989 -59.48730469 47.6640625 C-58.55895092 35.1753705 -51.71390082 23.72237973 -42.74609375 15.2265625 C-30.36598548 5.48939869 -15.7601855 -0.1101771 0 0 Z " fill="#040404" transform="translate(1518.3125,232.6875)"/>
<path d="M0 0 C6.66169127 2.80356891 9.8669549 8.41175207 12.62109375 14.82421875 C17.62832997 30.6377694 16.53287796 53.90000778 9.92578125 69.18359375 C7.05719475 73.95899576 2.86853819 77.6531956 -2.4140625 79.4140625 C-9.60182069 80.11223646 -14.60276148 79.83065128 -20.4140625 75.4140625 C-27.26566508 69.1998183 -29.64268799 59.13159563 -30.32421875 50.10546875 C-31.40313329 17.78494174 -31.40313329 17.78494174 -22.4765625 4.5390625 C-16.24392085 -1.88244708 -8.41211201 -2.04177476 0 0 Z " fill="#FEFCFC" transform="translate(827.4140625,79.5859375)"/>
<path d="M0 0 C24.75 0 49.5 0 75 0 C74.67 3.96 74.34 7.92 74 12 C55.19 12 36.38 12 17 12 C17 22.23 17 32.46 17 43 C32.51 43 48.02 43 64 43 C64 46.96 64 50.92 64 55 C48.49 55 32.98 55 17 55 C17 71.17 17 87.34 17 104 C11.39 104 5.78 104 0 104 C0 69.68 0 35.36 0 0 Z " fill="#040404" transform="translate(1183,235)"/>
<path d="M0 0 C31.35 0 62.7 0 95 0 C94 11 94 11 93 13 C80.46 13 67.92 13 55 13 C55 43.03 55 73.06 55 104 C49.72 104 44.44 104 39 104 C37.16642556 102.16642556 37.88000033 99.60364305 37.87557983 97.1640625 C37.88097275 95.90710571 37.88097275 95.90710571 37.88647461 94.62475586 C37.88632858 93.74678848 37.88618256 92.86882111 37.8860321 91.96424866 C37.88673156 89.04775565 37.89452545 86.13132567 37.90234375 83.21484375 C37.90420782 81.19845108 37.90563177 79.18205796 37.90663147 77.16566467 C37.91045756 71.84734862 37.92028861 66.5290597 37.93133545 61.21075439 C37.94154762 55.78829312 37.94612867 50.36582748 37.95117188 44.94335938 C37.9619108 34.29555906 37.97950833 23.64778602 38 13 C25.46 13 12.92 13 0 13 C0 8.71 0 4.42 0 0 Z " fill="#0B0B0B" transform="translate(881,235)"/>
<path d="M0 0 C5.61 0 11.22 0 17 0 C17 34.32 17 68.64 17 104 C11.39 104 5.78 104 0 104 C0 69.68 0 35.36 0 0 Z " fill="#050505" transform="translate(1060,235)"/>
<path d="M0 0 C5.61 0 11.22 0 17 0 C17 34.32 17 68.64 17 104 C11.72 104 6.44 104 1 104 C0 103 0 103 -0.12304783 101.268363 C-0.12212604 100.50972737 -0.12120424 99.75109175 -0.12025452 98.96946716 C-0.12162918 98.10143463 -0.12300385 97.2334021 -0.12442017 96.33906555 C-0.12082489 95.37953476 -0.11722961 94.42000397 -0.11352539 93.43139648 C-0.11367142 92.42663269 -0.11381744 91.4218689 -0.1139679 90.38665771 C-0.1132683 87.04811483 -0.10547374 83.70962695 -0.09765625 80.37109375 C-0.09579224 78.06323782 -0.09436826 75.75538149 -0.09336853 73.44752502 C-0.08954204 67.35982174 -0.07971065 61.27214214 -0.06866455 55.18444824 C-0.05845323 48.97778646 -0.05387151 42.77112087 -0.04882812 36.56445312 C-0.0380885 24.37629165 -0.02101052 12.18814779 0 0 Z " fill="#090909" transform="translate(411,235)"/>
<path d="M0 0 C5.28 0 10.56 0 16 0 C16 33.99 16 67.98 16 103 C10.72 103 5.44 103 0 103 C0 69.01 0 35.02 0 0 Z " fill="#000000" transform="translate(1346,235)"/>
<path d="M0 0 C14.85 0 29.7 0 45 0 C41.625 11.25 41.625 11.25 39.95703125 16.2265625 C39.63968018 17.17611816 39.3223291 18.12567383 38.99536133 19.10400391 C38.60501709 20.26593262 38.21467285 21.42786133 37.8125 22.625 C36.554375 26.37875 35.29625 30.1325 34 34 C19.48 34 4.96 34 -10 34 C-9.27817771 28.94724396 -8.53386196 25.12080493 -6.93359375 20.41015625 C-6.57064209 19.3312915 -6.20769043 18.25242676 -5.83374023 17.14086914 C-5.37298096 15.79500732 -4.91222168 14.44914551 -4.4375 13.0625 C-2.973125 8.751875 -1.50875 4.44125 0 0 Z " fill="#E81619" transform="translate(1057,0)"/>
<path d="M0 0 C6.74689881 4.49793254 10.95606542 10.18495601 13 18 C13 20.97 13 23.94 13 27 C-0.53 27 -14.06 27 -28 27 C-27.15079852 16.80958227 -26.56247154 9.80260162 -19.625 2.5 C-13.41503229 -1.04855297 -6.85962879 -2.28654293 0 0 Z " fill="#FEF8F8" transform="translate(372,76)"/>
<path d="M0 0 C6.53491241 3.64471632 9.21677492 9.51978533 11.9375 16.25 C12.75 19.3125 12.75 19.3125 12.75 26.3125 C-0.78 26.3125 -14.31 26.3125 -28.25 26.3125 C-28.25 17.03777531 -27.51589111 9.61327052 -20.9140625 2.71875 C-14.69588965 -2.53604396 -7.22097792 -3.29565968 0 0 Z " fill="#FEF8F8" transform="translate(1438.25,76.6875)"/>
</svg>
